<svg width="817" height="296" viewBox="0 0 817 296" fill="none" xmlns="http://www.w3.org/2000/svg">
<path d="M114.925 129.315C105.279 105.669 95.8058 82.338 86.3133 59.015C83.0642 51.0319 79.7669 43.0684 75.9515 33.7812C59.9038 73.1432 44.3184 111.371 28.8128 149.404C30.8449 151.302 32.6293 150.658 34.2403 150.662C50.2175 150.704 66.1953 150.612 82.1721 150.7C91.1764 150.75 96.003 157.027 93.7653 165.489C92.5935 169.921 89.6049 172.53 85.1168 172.552C59.8328 172.676 34.5475 172.71 9.26384 172.565C2.44086 172.526 -1.94054 164.565 0.856106 157.746C10.7619 133.592 20.726 109.461 30.6826 85.3277C40.879 60.613 51.2551 35.9706 61.2022 11.1561C64.2832 3.47 69.2777 0.158549 76.03 0.00456484C83.2197 -0.159417 88.0076 4.10199 91.0398 11.6011C102.029 38.7794 113.205 65.8824 124.292 93.0215C133.159 114.729 142.049 136.428 150.817 158.176C152.981 163.544 150.555 168.523 144.874 171.325C139.555 173.949 134.043 172.708 131.158 167.604C128.66 163.186 126.757 158.415 124.801 153.712C121.477 145.722 118.318 137.663 114.925 129.315Z" fill="black"/>
<path d="M197.259 50.8521C209.714 44.1275 222.776 42.5829 236.254 44.0336C247.433 45.237 258.107 47.9626 266.931 55.6592C271.829 59.9309 275.625 64.8037 277.789 70.9975C279.954 77.1964 277.962 82.031 271.688 84.9726C266.582 87.3663 260.457 85.5573 257.86 80.177C255.266 74.8042 252.155 70.1782 246.448 67.9355C233.61 62.8903 220.742 62.8993 208.126 68.5576C202.407 71.1228 201.148 76.3044 201.369 82.1738C201.573 87.6126 204.585 90.7428 209.253 92.5302C217.065 95.5214 225.359 96.6502 233.465 98.5137C246.203 101.442 259.263 103.467 269.883 112.218C278.095 118.986 281.918 132.54 279.756 142.872C275.601 162.736 261.396 170.512 243.715 173.985C226.879 177.291 210.412 175.465 194.977 167.466C186.309 162.973 179.794 156.36 176.067 147.165C173.631 141.155 175.257 135.409 180.338 132.721C185.954 129.75 192.423 130.795 194.955 136.989C202.983 156.624 235.458 157.463 250.162 149.802C255.286 147.133 258.086 142.555 258.326 137.122C258.595 130.998 253.188 125.385 246.23 123.423C234.793 120.197 222.979 118.6 211.486 115.684C200.032 112.777 188.603 109.18 182.353 97.7755C173.363 81.3693 179.381 59.753 197.259 50.8521Z" fill="black"/>
<path d="M342.025 12.0096C344.953 14.7246 345.976 17.8083 345.93 21.4233C345.84 28.5548 346.086 35.6945 345.841 42.8187C345.713 46.5543 346.612 47.9915 350.708 47.793C358.753 47.403 366.83 47.5251 374.892 47.6358C384.116 47.7625 388.786 55.3589 384.984 63.7107C382.87 68.355 378.669 68.8921 374.45 68.972C366.391 69.1247 358.316 69.1913 350.267 68.8438C346.598 68.6854 345.813 69.9433 345.834 73.299C345.964 93.611 345.864 113.924 345.952 134.237C345.994 143.71 352.875 150.501 362.443 150.679C367.713 150.777 372.986 150.679 378.257 150.687C385.458 150.699 388.33 156.292 389.106 161.818C389.735 166.296 384.651 172.199 379.734 172.425C367.369 172.994 354.902 173.689 343.306 167.876C331.653 162.035 324.839 152.273 324.29 139.615C323.423 119.65 324.035 99.6228 323.931 79.6225C323.877 69.285 323.788 69.2854 313.537 69.2078C304.339 69.1383 299.504 63.4787 301.663 55.3828C302.962 50.5121 306.393 48.3691 311.09 47.7597C311.856 47.6603 312.635 47.6461 313.409 47.6201C323.974 47.2661 323.98 47.2673 323.986 36.4331C323.988 31.4712 324.068 26.5064 323.924 21.5483C323.786 16.8019 325.312 12.9638 329.59 10.6713C333.802 8.41339 337.937 8.68605 342.025 12.0096Z" fill="black"/>
<path d="M635.323 113.966C630.436 114.436 625.975 115.012 621.717 116.495C611.912 119.909 607.072 127.706 604.842 137.117C601.957 149.291 600.483 161.721 599.948 174.242C599.858 176.333 599.805 176.331 597.767 178.308C596.213 177.975 596.045 176.684 595.943 175.462C595.52 170.372 594.979 165.284 594.808 160.184C594.491 150.687 592.991 141.343 589.746 132.492C585.415 120.679 575.531 115.423 563.876 113.088C550.699 110.448 537.419 108.488 523.942 108.213C523.524 108.204 523.113 107.859 522.528 107.593C522.906 105.289 524.867 105.323 526.365 105.141C532.507 104.398 538.658 103.672 544.827 103.218C554.076 102.539 563.19 101.233 572.092 98.5454C582.154 95.5071 587.644 88.3634 590.067 78.5541C593.45 64.8651 595.417 50.9641 595.882 36.86C595.922 35.6292 595.982 34.3743 597.314 33.4209C599.708 34.7775 599.87 37.0799 599.945 39.3867C600.36 52.2179 602.126 64.8803 604.846 77.4064C607.335 88.8667 616.21 96.3539 627.827 98.7511C638.432 100.94 649.135 100.65 659.757 101.132C686.221 102.334 712.71 103.119 739.206 103.681C760.29 104.128 781.37 103.924 802.445 104.366C807.008 104.461 811.622 104.564 816.242 106.698C814.388 109.091 812.225 108.312 810.393 108.341C791.33 108.64 772.268 108.245 753.199 109.124C726.579 110.35 699.901 110.467 673.305 112.031C660.785 112.767 648.196 112.169 635.323 113.966Z" fill="black"/>
<path d="M414.15 92.2722C414.142 80.8052 414.11 69.8035 414.136 58.802C414.152 51.8441 417.825 47.0577 423.513 46.4419C429.073 45.8398 433.926 49.93 435.37 56.5241C435.759 58.2982 435.935 60.1189 436.316 62.6244C441.828 57.5663 446.979 52.9716 453.348 50.0174C466.596 43.8731 480.269 42.4773 494.305 46.4367C499.114 47.7932 501.156 52.8896 500.052 58.6547C499.096 63.6433 495.777 66.5417 490.766 66.5641C485.19 66.589 479.611 66.3819 474.036 66.4465C454.596 66.6718 440.025 82.697 437.013 99.5377C434.727 112.321 436.313 125.185 435.933 138.006C435.699 145.901 436.102 153.816 435.856 161.71C435.599 169.931 429.428 174.631 420.585 172.123C416.004 170.824 414.053 166.986 414.079 162.001C414.197 138.914 414.143 115.826 414.15 92.2722Z" fill="black"/>
<path d="M514.226 134.638C513.261 129.759 511.041 125.605 510.817 120.835C510.65 117.262 511.738 115.82 515.186 116.358C519.903 117.094 524.536 118.262 529.379 118.285C531.976 118.297 532.615 120.605 533.26 122.806C536.513 133.922 542.87 142.708 553.013 148.569C560.49 152.89 568.652 154.26 577.091 153.551C581.554 153.176 583.431 154.739 584.375 159.012C585.328 163.324 584.993 167.635 585.313 171.933C585.514 174.63 583.037 174.892 581.011 175.086C554.118 177.669 526.052 163.243 515.332 136.557C515.105 135.992 514.696 135.499 514.226 134.638Z" fill="black"/>
<path d="M581.727 64.1863C572.045 62.988 563.144 64.643 554.798 68.7219C545.358 73.3355 538.697 80.6089 535.635 90.863C534.57 94.4267 533.88 98.0233 529.439 97.3917C525.854 96.8821 521.458 97.0274 517.964 97.8054C511.561 99.2315 509.508 97.0763 511.365 90.8102C514.159 81.3797 518.295 72.5383 524.942 65.1654C540.041 48.4167 559.216 42.0951 581.339 43.5757C583.696 43.7336 585.215 44.7579 585.072 47.3133C584.753 52.9925 583.65 58.5402 581.727 64.1863Z" fill="black"/>
<path d="M635.622 123.443C645.17 121.865 645.745 122.59 642.79 131.211C638.002 145.174 629.353 156.152 617.206 164.386C615.551 165.508 613.693 167.688 611.424 166.322C609.256 165.017 610.555 162.554 610.839 160.74C611.934 153.748 612.398 146.46 614.813 139.915C619.02 128.514 621.693 123.835 635.622 123.443Z" fill="black"/>
<path d="M625.267 59.2509C633.594 66.8092 639.126 75.7763 642.665 86.0553C643.797 89.3432 643.426 90.8358 639.333 90.8404C634.278 90.846 629.202 89.9137 624.808 88.2843C618.559 85.9667 615.886 79.5206 614.295 73.2845C612.816 67.4868 612.015 61.5125 611.014 55.5993C610.766 54.1356 610.207 52.3165 611.801 51.3278C613.376 50.3506 614.798 51.5919 616.027 52.448C619.074 54.5703 622.026 56.8294 625.267 59.2509Z" fill="black"/>
<path d="M331.565 249.197C331.249 245.399 329.712 242.327 326.953 239.98C324.213 237.634 320.666 236.46 316.31 236.46C313.373 236.46 310.762 237.007 308.476 238.101C306.189 239.195 304.396 240.686 303.095 242.575C301.794 244.464 301.144 246.632 301.144 249.078C301.144 250.649 301.44 252.071 302.031 253.344C302.642 254.597 303.499 255.72 304.603 256.714C305.707 257.689 307.017 258.544 308.535 259.28C310.052 260.016 311.728 260.662 313.561 261.219L320.183 263.188C322.449 263.884 324.538 264.689 326.45 265.604C328.382 266.518 330.057 267.612 331.476 268.885C332.915 270.138 334.028 271.609 334.817 273.3C335.625 274.99 336.029 276.939 336.029 279.146C336.029 282.368 335.201 285.251 333.545 287.797C331.91 290.342 329.574 292.351 326.539 293.822C323.523 295.274 319.966 296 315.867 296C311.964 296 308.564 295.334 305.667 294.001C302.79 292.669 300.513 290.82 298.838 288.453C297.163 286.067 296.217 283.322 296 280.22H299.784C299.981 282.746 300.779 284.933 302.179 286.783C303.598 288.612 305.48 290.024 307.825 291.018C310.171 292.013 312.851 292.51 315.867 292.51C319.119 292.51 321.986 291.953 324.469 290.839C326.953 289.706 328.894 288.135 330.293 286.126C331.693 284.118 332.392 281.781 332.392 279.116C332.392 276.969 331.89 275.129 330.885 273.598C329.88 272.067 328.392 270.744 326.421 269.631C324.469 268.517 322.045 267.523 319.148 266.648L312.082 264.5C307.352 263.048 303.736 261.07 301.233 258.564C298.749 256.058 297.508 252.936 297.508 249.197C297.508 246.055 298.336 243.271 299.991 240.845C301.647 238.399 303.893 236.48 306.731 235.088C309.589 233.696 312.812 233 316.399 233C320.005 233 323.188 233.706 325.948 235.118C328.707 236.51 330.895 238.429 332.511 240.875C334.127 243.301 335.024 246.075 335.201 249.197H331.565Z" fill="#010000"/>
<path d="M356.679 237.385V233.925H399.103V237.385H379.739V295.016H376.043V237.385H356.679Z" fill="#010000"/>
<path d="M463.64 233.925H467.335V274.374C467.335 278.53 466.379 282.239 464.468 285.5C462.556 288.741 459.915 291.307 456.545 293.196C453.194 295.065 449.341 296 444.985 296C440.65 296 436.796 295.065 433.426 293.196C430.056 291.307 427.405 288.732 425.474 285.47C423.562 282.209 422.616 278.51 422.636 274.374V233.925H426.331V274.165C426.331 277.685 427.119 280.817 428.696 283.561C430.292 286.305 432.49 288.473 435.289 290.064C438.087 291.635 441.32 292.42 444.985 292.42C448.651 292.42 451.884 291.635 454.682 290.064C457.481 288.473 459.669 286.305 461.245 283.561C462.842 280.817 463.64 277.685 463.64 274.165V233.925Z" fill="#010000"/>
<path d="M511.688 295.016H494.896V233.925H512.989C518.665 233.925 523.523 235.138 527.564 237.564C531.604 239.99 534.698 243.47 536.847 248.004C539.015 252.518 540.089 257.938 540.069 264.261C540.049 270.724 538.926 276.253 536.699 280.847C534.472 285.42 531.249 288.93 527.032 291.376C522.814 293.803 517.699 295.016 511.688 295.016ZM498.592 291.555H511.54C516.941 291.555 521.493 290.472 525.199 288.304C528.904 286.116 531.703 282.984 533.595 278.908C535.506 274.831 536.452 269.949 536.433 264.261C536.433 258.653 535.516 253.851 533.683 249.854C531.85 245.837 529.18 242.754 525.672 240.607C522.183 238.459 517.906 237.385 512.841 237.385H498.592V291.555Z" fill="#010000"/>
<path d="M568.251 233.925V295.016H564.555V233.925H568.251Z" fill="#010000"/>
<path d="M644 264.47C644 270.774 642.916 276.283 640.748 280.996C638.58 285.689 635.565 289.338 631.702 291.943C627.858 294.548 623.424 295.851 618.398 295.851C613.353 295.851 608.898 294.548 605.036 291.943C601.192 289.318 598.187 285.659 596.019 280.966C593.851 276.253 592.767 270.754 592.767 264.47C592.767 258.166 593.851 252.668 596.019 247.974C598.206 243.281 601.222 239.632 605.065 237.027C608.908 234.402 613.353 233.089 618.398 233.089C623.424 233.089 627.858 234.392 631.702 236.997C635.565 239.602 638.58 243.261 640.748 247.974C642.916 252.668 644 258.166 644 264.47ZM640.393 264.47C640.393 258.803 639.447 253.891 637.555 249.734C635.683 245.578 633.091 242.366 629.78 240.099C626.469 237.812 622.675 236.669 618.398 236.669C614.121 236.669 610.327 237.803 607.016 240.07C603.705 242.317 601.104 245.528 599.212 249.705C597.339 253.861 596.403 258.783 596.403 264.47C596.403 270.098 597.329 275 599.182 279.176C601.054 283.332 603.646 286.554 606.957 288.841C610.268 291.128 614.082 292.271 618.398 292.271C622.675 292.271 626.469 291.138 629.78 288.871C633.091 286.584 635.683 283.362 637.555 279.206C639.447 275.05 640.393 270.138 640.393 264.47Z" fill="#010000"/>
</svg>
